<?xml version="1.0" standalone="no"?>
<!DOCTYPE svg PUBLIC "-//W3C//DTD SVG 20010904//EN"
 "http://www.w3.org/TR/2001/REC-SVG-20010904/DTD/svg10.dtd">
<svg version="1.0" xmlns="http://www.w3.org/2000/svg"
 width="669.000000pt" height="200.000000pt" viewBox="0 0 669.000000 200.000000"
 preserveAspectRatio="xMidYMid meet">

<g transform="translate(0.000000,200.000000) scale(0.100000,-0.100000)"
fill="#000000" stroke="none">
<path d="M456 1912 c-68 -37 -100 -96 -90 -167 18 -139 54 -336 64 -354 9 -19
6 -27 -24 -63 -26 -30 -47 -76 -80 -172 -24 -72 -103 -304 -176 -516 -73 -212
-136 -400 -140 -417 -9 -37 2 -100 20 -117 10 -8 10 -6 1 11 -20 39 -12 97 33
229 88 260 245 722 280 823 50 146 93 205 116 160 9 -15 7 -26 -9 -48 -11 -15
-79 -201 -151 -412 -72 -211 -151 -440 -176 -509 -56 -160 -60 -180 -40 -218
35 -67 -139 -62 1983 -62 1058 0 1923 3 1923 8 0 4 -20 6 -45 4 -40 -4 -45 -2
-45 17 0 20 5 21 116 21 107 0 116 1 121 20 4 16 14 20 44 20 22 0 39 5 39 10
0 6 18 10 40 10 22 0 40 5 40 10 0 6 18 10 40 10 36 0 40 2 40 26 0 24 3 26
40 22 22 -2 40 -1 40 3 0 14 61 15 90 1 26 -13 31 -12 45 2 13 13 14 16 2 16
-14 0 -20 29 -5 31 4 1 13 3 18 4 6 1 29 4 53 5 l42 3 -50 6 c-45 5 -50 8 -47
30 1 13 -3 30 -9 38 -10 11 -9 12 5 7 14 -5 16 2 16 54 0 34 4 63 8 66 5 3 31
-3 58 -12 39 -14 77 -18 179 -16 184 3 183 2 165 14 -8 5 -10 10 -5 10 6 0 11
9 12 20 2 19 -4 20 -140 20 -236 0 -253 21 -198 245 38 157 69 213 135 244 40
20 60 21 330 21 l288 0 -7 -87 c-4 -49 -9 -91 -12 -95 -2 -5 -17 -1 -33 7 -22
12 -68 15 -200 15 -96 0 -170 -4 -170 -9 0 -5 -3 -16 -6 -25 -5 -14 9 -16 114
-16 162 0 218 -12 243 -53 23 -39 24 -74 4 -152 -9 -33 -17 -82 -19 -110 -2
-27 -7 -58 -11 -67 -4 -10 -5 -23 -2 -30 3 -7 6 -3 6 10 1 12 6 22 12 22 7 0
9 -10 7 -25 -3 -14 -1 -22 4 -19 5 4 7 29 4 58 -4 31 -3 43 2 32 8 -18 10 -16
20 12 6 18 8 40 5 49 -4 11 -3 14 5 9 7 -4 12 0 13 11 3 34 8 58 49 208 22 85
40 173 40 203 l0 52 191 0 c149 0 189 -3 183 -12 -4 -7 -16 -24 -26 -38 -15
-21 -68 -186 -68 -212 0 -10 113 -15 132 -6 9 4 19 22 23 40 3 18 13 62 22 98
8 35 13 79 10 97 l-6 32 182 3 c139 2 184 0 194 -10 17 -17 17 -23 0 -16 -16
6 -62 -90 -71 -146 -3 -19 -10 -50 -16 -69 -10 -36 -4 -81 11 -81 5 0 7 -12 4
-28 -3 -15 5 -3 17 25 25 58 42 67 52 28 9 -34 26 -31 26 4 0 36 5 39 53 34
25 -4 37 -10 38 -22 0 -9 3 -11 5 -4 3 7 1 20 -4 30 -11 21 -4 73 9 73 5 0 7
-11 3 -24 -3 -13 -1 -27 5 -30 7 -5 11 3 11 18 0 14 5 26 10 26 6 0 8 -17 5
-42 -5 -43 -5 -43 5 -8 28 97 34 116 43 128 6 8 5 12 -4 12 -10 0 -10 3 -3 8
9 6 32 77 49 156 3 10 10 34 16 53 13 39 5 108 -14 127 -35 36 -41 36 -1025
36 -533 0 -1003 3 -1045 6 -54 5 -78 11 -82 22 -3 8 -3 18 1 21 3 3 482 6
1064 6 582 0 1056 2 1053 5 -2 3 -500 7 -1106 10 l-1101 5 -12 23 c-10 20 -11
16 -11 -32 0 -61 -22 -107 -66 -140 l-28 -21 -1822 -3 -1821 -2 -52 25 c-49
24 -85 60 -113 114 -19 35 -68 371 -60 410 10 48 39 83 89 109 l45 22 1807 -2
c994 -2 1800 0 1790 4 -9 4 -825 7 -1812 7 l-1795 1 -49 -28z m739 -929 c-4
-49 -9 -89 -10 -91 -2 -2 -24 4 -49 12 -67 23 -328 23 -350 0 -37 -36 -22 -42
127 -46 108 -3 150 -8 174 -21 40 -21 63 -54 63 -89 0 -42 -58 -256 -82 -305
-21 -43 -72 -85 -117 -98 -13 -4 -150 -8 -304 -10 l-280 -2 8 96 c3 53 8 97
10 99 1 2 20 -6 41 -17 34 -19 56 -21 196 -21 145 0 158 1 168 19 26 49 20 51
-130 51 -194 0 -230 18 -230 114 0 39 56 260 76 298 15 30 66 71 104 87 14 5
147 10 308 10 l284 1 -7 -87z m419 42 c-23 -41 -63 -168 -64 -204 0 -8 26 10
58 40 32 30 81 75 110 102 33 29 55 58 59 77 l6 30 133 0 c127 0 134 -1 134
-20 0 -12 -12 -26 -32 -36 -35 -18 -211 -160 -216 -175 -5 -13 131 -409 140
-409 8 0 7 -5 88 320 43 168 60 257 57 283 l-5 37 184 0 c101 0 184 -4 184 -9
0 -5 -6 -14 -13 -20 -26 -21 -47 -88 -113 -355 -41 -171 -64 -284 -62 -310 l3
-41 -327 -2 -327 -2 -10 34 c-5 19 -22 82 -37 140 l-27 104 -26 -19 c-21 -14
-31 -35 -45 -94 -10 -42 -16 -95 -14 -119 l3 -42 -175 -2 c-96 -1 -181 0 -189
3 -11 3 -9 9 7 27 30 32 45 78 118 372 45 177 64 272 61 298 l-5 37 184 0 185
0 -27 -45z m1539 34 c42 -11 77 -56 77 -98 0 -14 -12 -73 -26 -133 -29 -120
-52 -159 -109 -179 -38 -14 -38 -12 -9 -111 7 -27 11 -48 8 -48 -3 0 0 -8 5
-17 5 -10 11 -33 14 -52 9 -52 22 -56 40 -14 30 68 149 555 150 611 l0 52 203
0 c112 0 204 -1 204 -2 0 -2 7 -75 15 -163 8 -88 15 -164 15 -169 0 -4 46 69
103 163 l102 171 399 0 398 0 -16 -22 c-32 -46 -49 -98 -112 -353 -63 -258
-74 -328 -53 -341 31 -19 -46 -24 -388 -24 -317 0 -373 2 -373 15 0 7 5 17 11
21 6 3 17 22 25 41 15 36 84 287 84 306 0 24 -13 4 -184 -286 l-58 -98 -111 3
-112 3 -17 190 c-9 105 -17 201 -18 215 -1 14 -15 -27 -32 -90 -16 -63 -36
-140 -44 -170 -8 -30 -13 -75 -12 -100 l2 -45 -264 -3 c-145 -1 -267 1 -271 5
-5 5 -18 67 -29 138 -26 165 -27 167 -52 163 -17 -2 -25 -19 -44 -98 -13 -53
-23 -120 -22 -150 l2 -55 -187 -3 c-103 -1 -187 0 -187 3 0 3 11 23 26 44 32
49 164 560 164 639 l0 52 323 0 c195 0 337 -4 360 -11z m3143 -244 c-4 -40
-13 -55 -21 -33 -6 14 10 68 19 68 2 0 3 -16 2 -35z m57 -2 c-7 -2 -19 -2 -25
0 -7 3 -2 5 12 5 14 0 19 -2 13 -5z"/>
<path d="M605 1011 c-60 -37 -79 -73 -114 -223 -25 -105 -27 -151 -5 -169 12
-10 63 -15 181 -19 122 -4 166 -8 172 -19 13 -21 -7 -94 -32 -114 -19 -17 -38
-19 -205 -15 -181 3 -183 3 -188 -19 -3 -12 -4 -30 -2 -40 3 -17 19 -18 253
-18 138 0 261 3 275 7 33 10 73 46 93 84 24 46 79 273 72 295 -14 44 -50 54
-215 59 l-155 5 2 50 c3 75 6 76 225 73 182 -3 188 -2 188 17 0 11 3 30 6 43
l6 22 -263 0 c-240 0 -267 -2 -294 -19z m515 -10 c0 -6 -39 -7 -93 -4 -51 3
-151 2 -222 -2 l-130 -7 -36 -37 c-32 -32 -39 -49 -69 -173 -33 -137 -43 -155
-70 -123 -10 12 -7 38 16 136 28 124 59 189 98 208 27 12 506 15 506 2z m-90
-211 c10 -7 -25 -10 -107 -10 -76 0 -123 4 -123 10 0 13 210 13 230 0z m-122
-193 c15 -12 15 -71 -1 -117 -21 -63 -53 -70 -274 -69 -140 0 -193 4 -193 12
0 9 44 11 167 9 203 -3 229 5 251 78 7 25 11 59 8 77 -4 27 -2 31 12 26 9 -3
23 -10 30 -16z"/>
<path d="M1320 1006 c0 -26 -131 -553 -149 -599 -14 -37 -9 -38 125 -35 l109
3 3 30 c1 17 10 63 18 103 14 68 20 78 67 123 29 27 55 49 58 49 4 0 23 -62
44 -137 21 -76 42 -146 47 -155 8 -16 25 -18 140 -18 120 0 130 1 125 18 -3 9
-40 115 -81 234 -42 120 -76 222 -76 227 0 5 45 46 100 91 55 45 100 84 100
86 0 2 -31 4 -68 4 -65 0 -68 -1 -78 -28 -11 -30 -311 -308 -321 -298 -5 5 56
266 72 309 7 16 -3 17 -114 17 -121 0 -121 0 -121 -24z m570 9 c0 -8 -52 -57
-163 -154 -73 -65 -107 -101 -107 -116 0 -12 8 -48 19 -81 25 -78 71 -239 71
-247 0 -4 -9 -7 -20 -7 -25 0 -32 16 -66 140 -14 52 -32 118 -40 145 l-14 50
73 64 c39 35 104 97 142 137 39 40 78 73 88 73 9 1 17 -1 17 -4z m-370 -15 c0
-6 -27 -10 -60 -10 -55 0 -60 -2 -60 -22 -1 -13 -31 -142 -68 -288 -66 -263
-67 -265 -94 -268 -21 -2 -28 1 -28 13 0 9 29 134 65 278 36 144 66 272 67
285 2 21 6 22 90 22 52 0 88 -4 88 -10z"/>
<path d="M2130 1003 c0 -21 -118 -498 -151 -613 -3 -13 14 -15 116 -15 l120 0
6 50 c5 40 117 491 145 583 6 22 6 22 -115 22 l-121 0 0 -27z m195 -3 c-3 -5
-31 -10 -60 -10 -48 0 -55 -3 -60 -22 -2 -13 -34 -142 -70 -287 -36 -145 -65
-265 -65 -267 0 -11 -41 -2 -46 9 -3 8 25 133 61 278 36 145 68 274 70 287 5
21 10 22 91 22 54 0 83 -4 79 -10z"/>
<path d="M4332 1028 c-30 -52 -38 -78 -98 -323 -61 -253 -75 -325 -63 -325 5
0 5 -8 2 -17 -13 -33 24 5 43 45 21 45 142 517 150 588 8 63 -7 76 -34 32z"/>
<path d="M2510 993 c0 -21 -32 -162 -71 -313 -39 -151 -71 -282 -72 -290 -2
-12 18 -15 116 -18 l117 -3 1 28 c0 15 14 84 32 153 l32 125 49 3 c27 2 52 0
57 -5 4 -4 18 -69 30 -143 12 -74 26 -141 32 -148 7 -8 44 -12 123 -12 94 0
114 3 114 15 0 8 -13 74 -30 146 -16 73 -27 136 -24 141 3 4 19 8 35 8 54 0
82 41 112 163 16 62 25 118 21 133 -13 50 -37 54 -369 54 l-305 0 0 -37z m615
7 c4 -7 -87 -10 -265 -10 -208 0 -271 -3 -274 -12 -2 -7 -34 -138 -71 -290
-64 -265 -68 -278 -91 -278 -12 0 -25 3 -28 8 -2 4 24 122 59 262 35 140 67
272 70 293 l7 37 293 0 c185 0 296 -4 300 -10z m-181 -106 c-2 -72 -20 -119
-50 -133 -14 -6 -65 -11 -114 -11 -104 0 -100 -8 -69 116 l22 85 106 -3 106
-3 -1 -51z m46 -41 c-1 -31 -32 -117 -47 -129 -10 -7 -35 -14 -55 -14 -20 0
-39 -3 -42 -8 -2 -4 7 -68 20 -142 13 -74 24 -138 24 -142 0 -5 -11 -8 -25 -8
-14 0 -25 3 -25 6 0 4 -11 74 -25 156 -14 83 -25 152 -23 153 2 2 30 5 63 8
69 6 89 23 99 86 4 27 11 41 21 41 8 0 15 -3 15 -7z"/>
<path d="M2755 866 c-23 -78 -24 -77 52 -74 62 3 69 5 80 29 7 15 16 40 19 57
l6 30 -71 4 -72 3 -14 -49z"/>
<path d="M3349 1018 c-2 -36 -16 -96 -78 -343 -38 -148 -70 -277 -72 -285 -3
-11 7 -16 39 -18 23 -2 42 0 43 5 4 47 17 110 65 293 30 118 57 223 60 233 6
21 44 23 44 3 0 -21 39 -443 46 -493 l5 -43 73 0 73 0 165 273 c130 217 168
273 187 275 18 3 22 0 17 -15 -2 -10 -32 -124 -65 -253 -33 -129 -63 -245 -67
-258 l-7 -23 119 3 119 3 3 30 c5 43 130 543 147 588 l15 37 -153 0 -152 0
-21 -33 c-11 -17 -64 -105 -118 -194 -66 -110 -104 -163 -116 -163 -15 0 -19
18 -29 138 -6 75 -14 163 -18 195 l-6 57 -158 0 c-120 0 -159 -3 -160 -12z
m279 -20 c-3 -9 -41 -14 -131 -16 -109 -2 -127 0 -127 13 0 13 20 15 131 15
100 0 130 -3 127 -12z m590 0 c-3 -9 -37 -14 -113 -16 -113 -3 -141 1 -130 18
10 16 248 13 243 -2z m-908 -295 c-33 -132 -60 -250 -60 -261 0 -11 -4 -24
-10 -27 -16 -10 -14 1 50 263 70 284 72 291 77 276 2 -7 -23 -120 -57 -251z
m214 190 c6 -35 39 -384 40 -438 1 -34 -2 -40 -21 -43 -26 -4 -29 6 -38 118
-4 47 -8 96 -10 110 -2 14 -6 61 -9 105 -4 44 -9 101 -12 128 -6 45 -5 47 19
47 20 0 27 -6 31 -27z m556 16 c0 -21 -111 -461 -121 -480 -11 -22 -49 -26
-49 -5 0 8 27 120 60 250 33 130 60 238 60 241 0 3 11 5 25 5 14 0 25 -5 25
-11z m-356 -304 c-4 -8 -15 -15 -25 -15 -10 0 -19 7 -19 15 0 9 9 15 25 15 18
0 23 -4 19 -15z"/>
<path d="M4419 1028 c0 -2 -3 -19 -6 -38 -6 -44 -128 -535 -142 -573 -6 -16
-11 -33 -11 -38 0 -6 46 -9 117 -7 l117 3 12 65 c18 94 122 508 139 553 l15
37 -120 0 c-66 0 -120 -1 -121 -2z m191 -28 c0 -5 -26 -10 -57 -10 l-58 0 -71
-288 -70 -287 -28 -3 c-24 -3 -28 0 -24 15 2 10 36 145 74 300 l69 283 83 0
c48 0 82 -4 82 -10z"/>
<path d="M4141 1917 c2 -2 18 -11 34 -21 l30 -17 -24 20 c-13 12 -28 21 -34
21 -6 0 -8 -1 -6 -3z"/>
<path d="M459 1841 c-37 -37 -37 -59 -3 -261 29 -176 48 -215 117 -252 l42
-23 1790 0 c1525 0 1795 2 1824 14 47 20 62 60 49 130 -12 67 -35 100 -68 100
-14 0 -74 14 -135 31 -60 17 -116 32 -122 32 -7 1 -13 5 -13 10 0 4 -9 8 -20
8 -11 0 -20 3 -20 8 0 4 -20 6 -45 4 -40 -4 -45 -2 -45 17 0 24 28 28 60 9 27
-17 31 -9 18 40 l-10 42 -122 1 c-66 1 -156 1 -199 1 -42 0 -75 3 -73 7 3 4
-8 8 -24 8 -18 0 -27 -4 -23 -11 5 -8 3 -8 -8 0 -8 5 -24 9 -36 8 -13 -1 -19
4 -17 11 5 11 -68 31 -158 42 -24 3 -38 10 -38 19 0 10 -12 14 -40 14 -22 0
-40 5 -40 10 0 7 -442 10 -1306 10 l-1306 0 -29 -29z m2589 -133 c3 -16 -6
-18 -72 -18 -73 0 -76 -1 -76 -24 0 -30 16 -36 91 -36 70 0 83 -14 94 -101 9
-83 -1 -90 -128 -87 -83 2 -102 6 -105 19 -2 13 10 16 69 17 40 1 75 4 77 7 2
2 2 16 -2 30 -6 24 -10 25 -76 25 -82 0 -95 12 -105 100 -9 84 -1 89 140 87
77 -2 90 -5 93 -19z m160 -40 c6 -35 14 -85 18 -113 3 -27 11 -56 16 -62 7 -8
36 -13 78 -13 57 0 69 3 72 18 3 15 -11 122 -26 205 -4 21 -2 27 12 27 15 0
20 -18 33 -117 22 -167 26 -163 -114 -163 -143 0 -142 -1 -168 152 -10 62 -19
116 -19 121 0 4 20 7 44 7 l44 0 10 -62z m360 -40 c7 -57 15 -120 18 -140 l7
-38 -47 0 c-25 0 -46 5 -46 10 0 14 -29 209 -36 243 -5 27 -5 27 43 27 l49 0
12 -102z m292 87 c0 -11 -11 -15 -41 -15 -38 0 -41 -2 -36 -22 3 -13 11 -61
17 -108 6 -47 13 -93 16 -102 5 -15 -2 -18 -44 -18 l-48 0 -12 103 c-18 150
-18 149 -63 146 -41 -3 -55 3 -44 20 4 7 53 11 131 11 104 0 124 -2 124 -15z
m-2016 -15 c8 -8 18 -34 22 -57 6 -39 5 -42 -20 -49 -30 -7 -35 -24 -7 -24 26
0 39 -19 47 -70 10 -63 -4 -70 -148 -70 -88 0 -118 3 -118 13 0 6 -9 68 -20
136 -10 68 -17 128 -13 134 3 5 56 8 124 6 88 -3 122 -8 133 -19z m180 -97 c9
-65 20 -128 23 -141 5 -22 3 -23 -43 -20 l-48 3 -17 120 c-25 166 -27 155 24
155 l43 0 18 -117z m164 15 c19 -157 13 -148 88 -148 50 0 64 -3 64 -15 0 -12
-19 -15 -108 -15 l-109 0 -17 118 c-10 64 -20 127 -23 140 -5 20 -2 22 44 22
l49 0 12 -102z m376 87 c4 -12 -6 -15 -59 -15 -61 0 -65 -1 -65 -22 1 -63 8
-69 74 -67 50 2 62 0 64 -14 3 -14 -6 -17 -57 -17 -60 0 -61 -1 -61 -27 0 -69
7 -75 79 -72 55 2 67 0 69 -14 3 -15 -9 -17 -111 -17 l-114 0 -18 128 c-10 70
-20 133 -22 140 -4 9 21 12 105 12 88 0 111 -3 116 -15z m-1588 -80 c21 -47
41 -85 45 -85 4 0 10 17 14 38 3 20 11 58 17 85 l10 47 58 0 c68 0 57 20 85
-160 20 -127 22 -120 -29 -120 l-43 0 -18 115 c-9 63 -21 115 -25 115 -4 0
-15 -42 -24 -92 -26 -147 -22 -138 -61 -138 -25 0 -35 5 -40 21 -4 11 -28 64
-53 117 -53 113 -61 105 -38 -40 9 -56 14 -103 11 -106 -15 -15 -29 28 -46
135 -26 166 -29 153 40 153 l59 0 38 -85z m539 62 c20 -32 43 -213 29 -235
-10 -14 -29 -17 -124 -17 -109 0 -114 1 -131 25 -12 16 -23 59 -31 122 -16
130 -18 128 128 128 107 0 114 -1 129 -23z m2150 -17 c3 -6 -1 -7 -9 -4 -18 7
-21 14 -7 14 6 0 13 -4 16 -10z"/>
<path d="M1680 1646 c0 -38 11 -49 48 -51 39 -1 53 16 46 53 -6 30 -9 32 -50
32 -43 0 -44 0 -44 -34z"/>
<path d="M1696 1528 c10 -56 12 -58 54 -58 46 0 54 11 42 55 -8 27 -13 30 -55
33 l-47 3 6 -33z"/>
<path d="M1344 1665 c-4 -8 -1 -53 6 -100 13 -95 27 -112 82 -100 l31 7 -7 67
c-4 36 -11 83 -17 104 -9 35 -12 37 -50 37 -26 0 -42 -5 -45 -15z"/>
<path d="M4291 1734 c0 -11 3 -14 6 -6 3 7 2 16 -1 19 -3 4 -6 -2 -5 -13z"/>
<path d="M4301 1674 c0 -11 3 -14 6 -6 3 7 2 16 -1 19 -3 4 -6 -2 -5 -13z"/>
<path d="M3838 1653 c7 -3 16 -2 19 1 4 3 -2 6 -13 5 -11 0 -14 -3 -6 -6z"/>
<path d="M4312 1630 c0 -14 2 -19 5 -12 2 6 2 18 0 25 -3 6 -5 1 -5 -13z"/>
<path d="M4322 1570 c0 -14 2 -19 5 -12 2 6 2 18 0 25 -3 6 -5 1 -5 -13z"/>
<path d="M4332 1510 c0 -14 2 -19 5 -12 2 6 2 18 0 25 -3 6 -5 1 -5 -13z"/>
<path d="M6605 1388 c11 -6 31 -20 45 -32 20 -16 19 -14 -4 12 -17 17 -37 32
-45 32 -12 -1 -11 -3 4 -12z"/>
<path d="M4854 1011 c-50 -30 -72 -72 -104 -193 -56 -213 -53 -218 167 -218
191 0 199 -6 162 -107 -15 -40 -40 -45 -230 -41 l-179 3 -6 -32 c-3 -17 -3
-36 1 -42 8 -14 444 -14 505 0 85 19 114 63 160 246 44 177 35 186 -188 191
-146 4 -154 5 -161 25 -9 24 1 71 20 93 9 11 51 14 205 14 l194 0 0 40 0 40
-257 0 c-236 0 -261 -2 -289 -19z m506 -8 c0 -5 -91 -8 -203 -8 -233 -1 -255
-6 -291 -69 -14 -22 -37 -96 -52 -163 -16 -68 -31 -123 -34 -123 -4 0 -15 6
-25 14 -19 14 -19 16 9 133 31 130 58 188 96 209 19 10 81 13 263 14 130 0
237 -3 237 -7z m-75 -213 c13 -5 -27 -9 -107 -9 -75 -1 -129 3 -133 9 -8 12
211 12 240 0z m-134 -191 c17 -17 20 -29 16 -63 -17 -120 -34 -127 -288 -126
-137 1 -189 5 -189 13 0 9 42 11 157 9 98 -3 171 0 195 7 48 15 71 57 72 128
1 29 4 53 9 53 4 0 17 -10 28 -21z"/>
<path d="M5570 1002 c0 -33 -134 -572 -149 -601 -6 -10 -7 -21 -4 -25 3 -3 60
-6 125 -6 l118 0 0 28 c0 27 55 256 66 273 6 11 221 12 227 2 4 -7 -46 -211
-68 -279 -7 -21 -5 -22 113 -23 l120 -2 6 43 c7 49 139 573 151 601 7 16 -1
17 -116 15 l-123 -3 -3 -35 c-5 -52 -44 -213 -56 -227 -6 -9 -43 -13 -118 -13
-97 0 -109 2 -109 18 0 24 35 168 54 220 l15 42 -124 0 -125 0 0 -28z m200 -7
c0 -12 -14 -15 -63 -15 l-64 0 -20 -87 c-19 -77 -85 -336 -114 -445 -7 -29
-15 -38 -31 -38 -15 0 -19 5 -15 20 3 10 36 145 73 299 l69 281 83 0 c66 0 82
-3 82 -15z m460 0 c0 -12 -14 -15 -65 -15 -59 0 -65 -2 -65 -20 0 -24 -116
-495 -130 -527 -10 -24 -40 -32 -40 -10 0 6 15 73 34 147 19 74 32 138 29 143
-2 4 -59 7 -125 7 -67 0 -119 3 -115 6 3 3 57 6 119 5 62 -1 118 3 125 7 10 6
38 107 69 250 4 21 10 22 84 22 64 0 80 -3 80 -15z"/>
<path d="M6501 774 c0 -11 3 -14 6 -6 3 7 2 16 -1 19 -3 4 -6 -2 -5 -13z"/>
<path d="M6250 749 c0 -13 -3 -35 -5 -49 -3 -14 -3 -19 1 -12 3 6 9 10 13 8 8
-5 5 64 -4 72 -3 3 -5 -6 -5 -19z"/>
<path d="M6481 744 c0 -11 3 -14 6 -6 3 7 2 16 -1 19 -3 4 -6 -2 -5 -13z"/>
<path d="M5780 625 c0 -5 -3 -21 -6 -35 -5 -20 -4 -22 6 -10 9 11 13 12 17 3
7 -19 33 10 33 36 0 16 -6 20 -25 19 -14 -1 -25 -7 -25 -13z m35 -14 c-3 -6
-11 -11 -17 -11 -6 0 -6 6 2 15 14 17 26 13 15 -4z"/>
<path d="M5840 631 c0 -6 5 -13 10 -16 6 -3 10 1 10 9 0 9 -4 16 -10 16 -5 0
-10 -4 -10 -9z"/>
<path d="M5875 619 c-10 -30 0 -33 13 -4 6 14 7 25 2 25 -5 0 -12 -9 -15 -21z"/>
<path d="M5757 623 c-4 -3 -7 -13 -7 -22 1 -13 3 -13 11 2 11 19 8 33 -4 20z"/>
<path d="M5330 410 c0 -6 4 -9 9 -6 5 4 12 1 14 -4 3 -6 4 -5 3 2 -3 15 -26
23 -26 8z"/>
<path d="M4627 304 c-3 -3 -3 -12 0 -20 4 -11 7 -11 19 1 8 7 14 16 14 19 0 8
-25 8 -33 0z"/>
<path d="M4750 301 c0 -6 5 -13 12 -17 6 -4 8 -3 4 4 -3 5 0 13 6 15 8 3 6 6
-4 6 -10 1 -18 -3 -18 -8z"/>
<path d="M55 70 c10 -11 20 -20 23 -20 3 0 -3 9 -13 20 -10 11 -20 20 -23 20
-3 0 3 -9 13 -20z"/>
</g>
</svg>
